<svg xmlns="http://www.w3.org/2000/svg" width="320" height="180" viewBox="0 0 320 180">
  <defs>
    <linearGradient id="bg" x1="0%" y1="0%" x2="100%" y2="100%">
      <stop offset="0%" stop-color="#0f172a"/>
      <stop offset="100%" stop-color="#1e1b4b"/>
    </linearGradient>
  </defs>
  <rect width="320" height="180" fill="url(#bg)" rx="8"/>
  <!-- Play button -->
  <circle cx="160" cy="90" r="36" fill="#7c3aed" fill-opacity="0.8"/>
  <polygon points="152,76 152,104 178,90" fill="white"/>
  <!-- Waveform bars -->
  <rect x="40"  y="130" width="8" height="20" rx="4" fill="#7c3aed" fill-opacity="0.6"/>
  <rect x="54"  y="122" width="8" height="28" rx="4" fill="#8b5cf6" fill-opacity="0.7"/>
  <rect x="68"  y="126" width="8" height="24" rx="4" fill="#7c3aed" fill-opacity="0.6"/>
  <rect x="82"  y="118" width="8" height="32" rx="4" fill="#a78bfa" fill-opacity="0.8"/>
  <rect x="96"  y="130" width="8" height="20" rx="4" fill="#7c3aed" fill-opacity="0.6"/>
  <rect x="220" y="130" width="8" height="20" rx="4" fill="#3b82f6" fill-opacity="0.6"/>
  <rect x="234" y="120" width="8" height="30" rx="4" fill="#60a5fa" fill-opacity="0.7"/>
  <rect x="248" y="124" width="8" height="26" rx="4" fill="#3b82f6" fill-opacity="0.6"/>
  <rect x="262" y="116" width="8" height="34" rx="4" fill="#93c5fd" fill-opacity="0.8"/>
  <rect x="276" y="130" width="8" height="20" rx="4" fill="#3b82f6" fill-opacity="0.6"/>
  <!-- Stars -->
  <circle cx="30" cy="30" r="2" fill="white" fill-opacity="0.4"/>
  <circle cx="290" cy="20" r="1.5" fill="white" fill-opacity="0.3"/>
  <circle cx="60" cy="50" r="1" fill="white" fill-opacity="0.2"/>
  <circle cx="280" cy="55" r="1.5" fill="white" fill-opacity="0.3"/>
  <!-- Label -->
  <text x="160" y="25" font-family="system-ui" font-size="11" fill="white" fill-opacity="0.5" text-anchor="middle" letter-spacing="2">DEMO VIDEO POSTER</text>
</svg>
